<svg width="24" height="24" viewBox="0 0 24 24" fill="none" xmlns="http://www.w3.org/2000/svg">
<path d="M20.68 14.4L21.28 10.26L21.24 10.22C21.3732 9.30889 21.1049 8.38478 20.5046 7.68662C19.9042 6.98845 19.0307 6.58479 18.11 6.58H7.67997L7.46997 5.89C7.07003 4.56144 5.85722 3.64374 4.46997 3.62H3.46997C3.05576 3.62 2.71997 3.95578 2.71997 4.37C2.71997 4.78421 3.05576 5.12 3.46997 5.12H4.46997C5.21294 5.11998 5.86769 5.60799 6.07997 6.32L8.60997 14.85C9.01821 16.1941 10.2553 17.1148 11.66 17.12H17.53C19.1067 17.1132 20.4435 15.9589 20.68 14.4Z" fill="black"/>
<path d="M11.4299 18.38C10.8776 18.38 10.4299 18.8277 10.4299 19.38C10.4299 19.9323 10.8776 20.38 11.4299 20.38C11.9822 20.38 12.4299 19.9323 12.4299 19.38C12.4299 18.8277 11.9822 18.38 11.4299 18.38Z" fill="black"/>
<path d="M17.4299 18.38C16.8776 18.38 16.4299 18.8277 16.4299 19.38C16.4299 19.9323 16.8776 20.38 17.4299 20.38C17.9822 20.38 18.4299 19.9323 18.4299 19.38C18.4299 18.8277 17.9822 18.38 17.4299 18.38Z" fill="black"/>
</svg>
