<svg width="202" height="25" viewBox="0 0 202 25" fill="none" xmlns="http://www.w3.org/2000/svg">
<path d="M0.0909092 24V0.727272H7.60227C9.25379 0.727272 10.6326 1.04545 11.7386 1.68182C12.8523 2.31061 13.6894 3.16667 14.25 4.25C14.8182 5.33333 15.1023 6.55303 15.1023 7.90909C15.1023 9.26515 14.822 10.4886 14.2614 11.5795C13.7008 12.6629 12.8674 13.5227 11.7614 14.1591C10.6553 14.7879 9.2803 15.1023 7.63636 15.1023H1.72727V13.1932H7.57955C8.79924 13.1932 9.81061 12.9659 10.6136 12.5114C11.4167 12.0492 12.0152 11.4205 12.4091 10.625C12.8106 9.82955 13.0114 8.92424 13.0114 7.90909C13.0114 6.89394 12.8106 5.98864 12.4091 5.19318C12.0152 4.39773 11.4129 3.77273 10.6023 3.31818C9.79924 2.86364 8.7803 2.63636 7.54545 2.63636H2.21591V24H0.0909092ZM20.0909 24V0.727272H33.5909V2.63636H22.2159V11.3977H32.875V13.3068H22.2159V22.0909H33.8182V24H20.0909ZM45.9091 24H39.0909V0.727272H46.3182C48.5379 0.727272 50.4356 1.18939 52.0114 2.11364C53.5947 3.03788 54.8068 4.36364 55.6477 6.09091C56.4886 7.81818 56.9091 9.89015 56.9091 12.3068C56.9091 14.7462 56.4773 16.8409 55.6136 18.5909C54.7576 20.3333 53.5076 21.6705 51.8636 22.6023C50.2273 23.5341 48.2424 24 45.9091 24ZM41.2159 22.0909H45.7841C47.7841 22.0909 49.4583 21.697 50.8068 20.9091C52.1553 20.1212 53.1667 18.9962 53.8409 17.5341C54.5152 16.072 54.8523 14.3295 54.8523 12.3068C54.8447 10.2992 54.5114 8.57197 53.8523 7.125C53.2008 5.67803 52.2311 4.56818 50.9432 3.79545C49.6629 3.02273 48.0795 2.63636 46.1932 2.63636H41.2159V22.0909ZM64.1847 0.727272V24H62.0597V0.727272H64.1847ZM77.1903 24H70.3722V0.727272H77.5994C79.8191 0.727272 81.7169 1.18939 83.2926 2.11364C84.8759 3.03788 86.0881 4.36364 86.929 6.09091C87.7699 7.81818 88.1903 9.89015 88.1903 12.3068C88.1903 14.7462 87.7585 16.8409 86.8949 18.5909C86.0388 20.3333 84.7888 21.6705 83.1449 22.6023C81.5085 23.5341 79.5237 24 77.1903 24ZM72.4972 22.0909H77.0653C79.0653 22.0909 80.7396 21.697 82.0881 20.9091C83.4366 20.1212 84.4479 18.9962 85.1222 17.5341C85.7964 16.072 86.1335 14.3295 86.1335 12.3068C86.1259 10.2992 85.7926 8.57197 85.1335 7.125C84.482 5.67803 83.5123 4.56818 82.2244 3.79545C80.9441 3.02273 79.3608 2.63636 77.4744 2.63636H72.4972V22.0909ZM112.42 12.3636C112.42 14.7879 111.989 16.8977 111.125 18.6932C110.261 20.4811 109.072 21.8674 107.557 22.8523C106.049 23.8295 104.314 24.3182 102.352 24.3182C100.39 24.3182 98.6515 23.8295 97.1364 22.8523C95.6288 21.8674 94.4432 20.4811 93.5795 18.6932C92.7235 16.8977 92.2955 14.7879 92.2955 12.3636C92.2955 9.93939 92.7235 7.83333 93.5795 6.04545C94.4432 4.25 95.6326 2.86364 97.1477 1.88636C98.6629 0.901514 100.398 0.40909 102.352 0.40909C104.314 0.40909 106.049 0.901514 107.557 1.88636C109.072 2.86364 110.261 4.25 111.125 6.04545C111.989 7.83333 112.42 9.93939 112.42 12.3636ZM110.352 12.3636C110.352 10.2803 110.004 8.49621 109.307 7.01136C108.61 5.51894 107.659 4.37879 106.455 3.59091C105.25 2.80303 103.883 2.40909 102.352 2.40909C100.83 2.40909 99.4659 2.80303 98.2614 3.59091C97.0568 4.37879 96.1023 5.51515 95.3977 7C94.7008 8.48485 94.3523 10.2727 94.3523 12.3636C94.3523 14.447 94.7008 16.2311 95.3977 17.7159C96.0947 19.2008 97.0455 20.3409 98.25 21.1364C99.4545 21.9242 100.822 22.3182 102.352 22.3182C103.883 22.3182 105.25 21.9242 106.455 21.1364C107.667 20.3485 108.621 19.2121 109.318 17.7273C110.015 16.2348 110.36 14.447 110.352 12.3636ZM130.196 6.54545C130.067 5.25 129.495 4.2197 128.48 3.45454C127.465 2.68939 126.188 2.30682 124.651 2.30682C123.567 2.30682 122.613 2.49242 121.787 2.86364C120.969 3.23485 120.325 3.75 119.855 4.40909C119.393 5.06061 119.162 5.80303 119.162 6.63636C119.162 7.25 119.295 7.78788 119.56 8.25C119.825 8.71212 120.181 9.10985 120.628 9.44318C121.082 9.76894 121.582 10.0492 122.128 10.2841C122.681 10.5189 123.238 10.7159 123.798 10.875L126.253 11.5795C126.995 11.7841 127.738 12.0455 128.48 12.3636C129.223 12.6818 129.901 13.0833 130.514 13.5682C131.135 14.0455 131.632 14.6326 132.003 15.3295C132.382 16.0189 132.571 16.8485 132.571 17.8182C132.571 19.0606 132.249 20.178 131.605 21.1705C130.961 22.1629 130.037 22.9508 128.832 23.5341C127.628 24.1098 126.185 24.3977 124.503 24.3977C122.92 24.3977 121.545 24.1364 120.378 23.6136C119.211 23.0833 118.295 22.3523 117.628 21.4205C116.961 20.4886 116.586 19.4091 116.503 18.1818H118.685C118.76 19.0985 119.063 19.875 119.594 20.5114C120.124 21.1477 120.813 21.6326 121.662 21.9659C122.51 22.2917 123.457 22.4545 124.503 22.4545C125.662 22.4545 126.692 22.2614 127.594 21.875C128.503 21.4811 129.215 20.9356 129.73 20.2386C130.253 19.5341 130.514 18.7159 130.514 17.7841C130.514 16.9962 130.31 16.3371 129.901 15.8068C129.491 15.2689 128.92 14.8182 128.185 14.4545C127.457 14.0909 126.613 13.7689 125.651 13.4886L122.866 12.6705C121.041 12.125 119.624 11.3712 118.616 10.4091C117.609 9.44697 117.105 8.2197 117.105 6.72727C117.105 5.47727 117.438 4.37879 118.105 3.43182C118.779 2.47727 119.688 1.73485 120.832 1.20454C121.984 0.666665 123.276 0.397726 124.707 0.397726C126.154 0.397726 127.435 0.662878 128.548 1.19318C129.662 1.72348 130.545 2.45454 131.196 3.38636C131.855 4.3106 132.207 5.36364 132.253 6.54545H130.196ZM136.355 24V0.727272H146.06C147.802 0.727272 149.26 0.973484 150.435 1.46591C151.616 1.95833 152.503 2.64773 153.094 3.53409C153.692 4.42045 153.991 5.44697 153.991 6.61364C153.991 7.5 153.806 8.29167 153.435 8.98864C153.063 9.67803 152.552 10.25 151.901 10.7045C151.249 11.1591 150.495 11.4773 149.639 11.6591V11.8864C150.579 11.9318 151.446 12.1856 152.241 12.6477C153.045 13.1098 153.688 13.7538 154.173 14.5795C154.658 15.3977 154.901 16.3674 154.901 17.4886C154.901 18.7386 154.582 19.8561 153.946 20.8409C153.31 21.8182 152.389 22.5909 151.185 23.1591C149.98 23.7197 148.518 24 146.798 24H136.355ZM141.98 19.4659H145.457C146.677 19.4659 147.575 19.2348 148.151 18.7727C148.734 18.3106 149.026 17.6667 149.026 16.8409C149.026 16.2424 148.885 15.7273 148.605 15.2955C148.325 14.8561 147.927 14.5189 147.412 14.2841C146.897 14.0417 146.279 13.9205 145.56 13.9205H141.98V19.4659ZM141.98 10.2955H145.094C145.707 10.2955 146.253 10.1932 146.73 9.98864C147.207 9.78409 147.579 9.48864 147.844 9.10227C148.116 8.71591 148.253 8.25 148.253 7.70454C148.253 6.92424 147.976 6.31061 147.423 5.86364C146.87 5.41667 146.124 5.19318 145.185 5.19318H141.98V10.2955ZM162.639 24H156.594L164.446 0.727272H171.935L179.787 24H173.741L168.276 6.59091H168.094L162.639 24ZM161.832 14.8409H174.469V19.1136H161.832V14.8409ZM182.293 24V0.727272H191.906C193.649 0.727272 195.152 1.04167 196.418 1.67045C197.69 2.29167 198.671 3.18561 199.361 4.35227C200.05 5.51136 200.395 6.88636 200.395 8.47727C200.395 10.0909 200.043 11.4621 199.338 12.5909C198.634 13.7121 197.634 14.5682 196.338 15.1591C195.043 15.7424 193.509 16.0341 191.736 16.0341H185.656V11.6023H190.69C191.539 11.6023 192.247 11.4924 192.815 11.2727C193.391 11.0455 193.827 10.7045 194.122 10.25C194.418 9.78788 194.565 9.19697 194.565 8.47727C194.565 7.75757 194.418 7.16288 194.122 6.69318C193.827 6.21591 193.391 5.85985 192.815 5.625C192.24 5.38258 191.531 5.26136 190.69 5.26136H187.918V24H182.293ZM195.395 13.3636L201.19 24H195.054L189.372 13.3636H195.395Z" fill="black"/>
</svg>
