<svg width="29" height="29" viewBox="0 0 29 29" fill="none" xmlns="http://www.w3.org/2000/svg">
<path d="M24.5599 4.44004L26.5999 9.96004C26.9932 11.0413 26.8461 12.2454 26.2039 13.2C25.4754 14.2621 24.2869 14.9164 22.9999 14.964C20.9913 15.1175 19.1777 13.7649 18.7519 11.796C18.7519 11.796 18.6799 11.796 18.6679 11.796C18.2702 13.7054 16.5486 15.0461 14.5999 14.964C12.6602 15.0342 10.9522 13.6962 10.5559 11.796C10.5559 11.796 10.4839 11.796 10.4719 11.796C10.2396 12.852 9.59647 13.772 8.68459 14.3529C7.7727 14.9338 6.66708 15.1278 5.61191 14.892C4.674 14.7379 3.82246 14.2525 3.21191 13.524C2.42024 12.5213 2.2193 11.1741 2.68391 9.98404L4.67591 4.44004C5.14391 3.2601 6.299 2.49802 7.56791 2.53204H21.6679C22.9368 2.49802 24.0919 3.2601 24.5599 4.44004Z" fill="black"/>
<path d="M23.1199 16.8V22.92C23.1011 23.5917 22.8161 24.2283 22.3277 24.6897C21.8393 25.151 21.1875 25.3994 20.5159 25.38H17.1199V21.6C17.0552 20.3383 15.9818 19.3669 14.7199 19.428C14.0963 19.4212 13.4926 19.6481 13.0279 20.064C12.5808 20.4495 12.3226 21.0097 12.3199 21.6V25.38H8.92391C8.24414 25.3994 7.58515 25.1445 7.09534 24.6728C6.60553 24.201 6.32608 23.5521 6.31991 22.872V16.8H6.41591C7.91992 16.8029 9.37232 16.2518 10.4959 15.252C12.8508 17.3064 16.361 17.3064 18.7159 15.252C19.8438 16.2604 21.307 16.8123 22.8199 16.8H23.1199Z" fill="black"/>
</svg>
