<svg width="29" height="29" viewBox="0 0 29 29" fill="none" xmlns="http://www.w3.org/2000/svg">
<path d="M20.1679 26.4H9.03189C7.8189 26.3559 6.68898 25.7725 5.95071 24.809C5.21244 23.8456 4.94297 22.6028 5.21589 21.42L5.50389 20.052C5.83514 18.2002 7.42704 16.8393 9.30789 16.8H19.8919C21.7727 16.8393 23.3647 18.2002 23.6959 20.052L23.9839 21.42C24.2568 22.6028 23.9873 23.8456 23.2491 24.809C22.5108 25.7725 21.3809 26.3559 20.1679 26.4Z" fill="black"/>
<path d="M15.1999 14.4H13.9999C11.3489 14.4 9.19989 12.251 9.19989 9.60004V6.43204C9.19669 5.36171 9.62046 4.3343 10.3773 3.57746C11.1341 2.82061 12.1616 2.39684 13.2319 2.40004H15.9679C17.0382 2.39684 18.0656 2.82061 18.8225 3.57746C19.5793 4.3343 20.0031 5.36171 19.9999 6.43204V9.60004C19.9999 10.8731 19.4942 12.094 18.594 12.9942C17.6938 13.8943 16.4729 14.4 15.1999 14.4Z" fill="black"/>
</svg>
