<svg width="30" height="29" viewBox="0 0 30 29" fill="none" xmlns="http://www.w3.org/2000/svg">
<path d="M16.288 18.7441L12.196 19.6201C12.0365 19.6376 11.8755 19.6376 11.716 19.6201C11.1484 19.625 10.603 19.3999 10.204 18.9961C9.69131 18.4701 9.47912 17.7207 9.64003 17.0041L10.516 12.9241C10.7021 12.1218 11.1193 11.3917 11.716 10.8241L18.556 3.98405H7.75603C6.4176 3.96779 5.12924 4.4923 4.18276 5.43878C3.23627 6.38526 2.71176 7.67362 2.72803 9.01205V21.4321C2.72803 24.1758 4.95228 26.4001 7.69603 26.4001H20.128C22.8718 26.4001 25.096 24.1758 25.096 21.4321V10.8841L18.4 17.5921C17.8234 18.1738 17.0893 18.5742 16.288 18.7441Z" fill="black"/>
<path fill-rule="evenodd" clip-rule="evenodd" d="M20.524 3.73205C21.9128 2.13876 24.3241 1.95699 25.936 3.32405C26.6117 4.10198 26.9486 5.11754 26.872 6.14505C26.7954 7.17256 26.3116 8.12692 25.528 8.79605L17.524 16.8001C17.1019 17.1993 16.5721 17.4663 16 17.5681L11.944 18.4801C11.6103 18.5773 11.2503 18.4791 11.0122 18.2258C10.7741 17.9726 10.6983 17.6071 10.816 17.2801L11.692 13.2001C11.8259 12.6443 12.1127 12.1371 12.52 11.7361L20.524 3.73205ZM21.016 9.32405L23.704 6.63605C24.0345 6.28144 24.0247 5.72884 23.682 5.38611C23.3392 5.04337 22.7866 5.03362 22.432 5.36405L19.744 8.05205C19.3931 8.40343 19.3931 8.97267 19.744 9.32405C20.0954 9.675 20.6646 9.675 21.016 9.32405Z" fill="black"/>
</svg>
