<svg width="29" height="29" viewBox="0 0 29 29" fill="none" xmlns="http://www.w3.org/2000/svg">
<path fill-rule="evenodd" clip-rule="evenodd" d="M26.8558 9.31996C27.2976 10.384 27.0222 11.611 26.168 12.3841C25.5983 12.8987 25.2722 13.6298 25.2699 14.3974C25.2676 15.1651 25.5894 15.8981 26.156 16.4161C27.0081 17.1878 27.2839 18.4115 26.8454 19.4742C26.4069 20.5369 25.3484 21.2098 24.2 21.1561C23.4357 21.1216 22.6921 21.4102 22.1511 21.9512C21.6101 22.4922 21.3215 23.2358 21.356 24.0001C21.381 25.1206 20.7172 26.1421 19.6831 26.5743C18.649 27.0065 17.4558 26.7612 16.676 25.9561C16.1597 25.3879 15.4277 25.064 14.66 25.064C13.8923 25.064 13.1603 25.3879 12.644 25.9561C11.883 26.8595 10.6265 27.1696 9.53262 26.7238C8.43872 26.2781 7.75678 25.1781 7.84401 24.0001C7.87849 23.2358 7.58995 22.4922 7.04894 21.9512C6.50793 21.4102 5.76434 21.1216 5.00001 21.1561C3.87951 21.1811 2.85804 20.5173 2.42584 19.4832C1.99364 18.4491 2.23894 17.2558 3.04401 16.4761C3.61216 15.9598 3.93609 15.2278 3.93609 14.4601C3.93609 13.6924 3.61216 12.9604 3.04401 12.4441C2.14055 11.6831 1.8305 10.4266 2.27626 9.33269C2.72202 8.2388 3.82201 7.55686 5.00001 7.64409C5.76434 7.67857 6.50793 7.39003 7.04894 6.84902C7.58995 6.30801 7.87849 5.56442 7.84401 4.80009C7.79026 3.65172 8.46324 2.59322 9.52595 2.15469C10.5886 1.71616 11.8123 1.99201 12.584 2.84409C13.1003 3.41224 13.8323 3.73617 14.6 3.73617C15.3677 3.73617 16.0997 3.41224 16.616 2.84409C17.3878 1.99201 18.6114 1.71616 19.6741 2.15469C20.7368 2.59322 21.4098 3.65172 21.356 4.80009C21.3215 5.56442 21.6101 6.30801 22.1511 6.84902C22.6921 7.39003 23.4357 7.67857 24.2 7.64409C25.3506 7.58485 26.4141 8.2559 26.8558 9.31996ZM12.392 11.7001C12.392 11.203 11.9891 10.8001 11.492 10.8001C10.9977 10.8066 10.5985 11.2057 10.592 11.7001C10.592 12.1971 10.995 12.6001 11.492 12.6001C11.9891 12.6001 12.392 12.1971 12.392 11.7001ZM17.816 18.0001C17.319 18.0001 16.916 17.5971 16.916 17.1001C16.916 16.603 17.319 16.2001 17.816 16.2001C18.3131 16.2001 18.716 16.603 18.716 17.1001C18.7095 17.5944 18.3104 17.9936 17.816 18.0001ZM11.78 18.4921L18.692 11.5681V11.5801C19.0224 11.2255 19.0127 10.6729 18.67 10.3301C18.3272 9.98741 17.7746 9.97766 17.42 10.3081L10.508 17.2201C10.3365 17.3872 10.2397 17.6166 10.2397 17.8561C10.2397 18.0956 10.3365 18.3249 10.508 18.4921C10.6734 18.6657 10.9043 18.7615 11.144 18.7561C11.3829 18.7572 11.6122 18.6621 11.78 18.4921Z" fill="black"/>
</svg>
